<svg width="117" height="44" viewBox="0 0 117 44" fill="none" xmlns="http://www.w3.org/2000/svg">
<path d="M14.004 33.468C18.36 33.468 21.78 31.668 24.228 28.932V19.716H12.78V24.18H19.116V27.06C18.144 27.96 16.128 28.896 14.004 28.896C9.648 28.896 6.48 25.548 6.48 21.012C6.48 16.476 9.648 13.128 14.004 13.128C16.56 13.128 18.612 14.568 19.692 16.26L23.94 13.956C22.14 11.112 19.008 8.592 14.004 8.592C6.984 8.592 1.224 13.416 1.224 21.012C1.224 28.572 6.984 33.468 14.004 33.468Z" fill="#3C3B3B"/>
<path d="M74.488 33V23.064H86.116V18.564H74.488V13.488H86.368V8.988H69.376V33H74.488ZM95.7024 13.74C97.2144 13.74 98.4384 12.516 98.4384 11.004C98.4384 9.492 97.2144 8.304 95.7024 8.304C94.2264 8.304 92.9664 9.492 92.9664 11.004C92.9664 12.516 94.2264 13.74 95.7024 13.74ZM98.0064 33V15.612H93.4344V33H98.0064ZM111.972 33.432C113.88 33.432 115.104 32.928 115.788 32.316L114.816 28.86C114.564 29.112 113.916 29.364 113.232 29.364C112.224 29.364 111.648 28.536 111.648 27.456V19.608H115.176V15.612H111.648V10.86H107.04V15.612H104.16V19.608H107.04V28.68C107.04 31.776 108.768 33.432 111.972 33.432Z" fill="#3C3B3B"/>
<path d="M59.5855 29.0069C62.8043 29.0816 64.2902 29.9523 64.8228 32.045C65.2551 33.7415 64.4253 35.5726 62.8468 36.4246C61.164 37.329 59.2304 37.0599 57.841 35.6959C57.9413 35.5465 58.0455 35.3858 58.2269 35.1167C57.9876 35.2699 57.8487 35.3596 57.7175 35.4456C57.0459 34.9037 56.9186 34.6048 56.6214 32.9082C49.682 38.2296 42.677 38.3342 35.6256 33.3566C35.6256 33.2819 35.6295 33.2034 35.6295 33.1287C36.853 33.323 38.0764 33.536 39.2999 33.7116C41.2181 33.9882 43.1324 34.332 45.066 34.4889C48.1266 34.7393 50.9054 33.8761 53.4218 32.187C53.4836 32.1459 53.5145 32.0562 53.6457 31.8619C52.8082 32.0375 52.1057 32.187 51.3995 32.329C45.3516 33.5397 39.3115 33.8125 33.3099 32.116C30.4848 31.32 27.9259 30.0196 26 28.166C27.401 28.6967 28.9873 29.403 30.643 29.9C33.5685 30.7782 36.6021 30.8604 39.6357 30.6773C43.6804 30.4344 47.567 29.5637 51.1216 27.6092C53.7345 26.1743 55.7298 24.1937 56.5982 21.3125C57.1463 19.4814 57.1154 17.6354 56.7912 15.7782C56.7487 15.539 56.7063 15.3036 56.6368 14.8962C57.7059 15.0719 58.6939 15.1952 59.655 15.4231C59.8827 15.4755 60.0756 15.8678 60.1876 16.1369C61.8665 20.2924 61.8086 24.4067 59.8248 28.4613C59.7399 28.6369 59.6704 28.8125 59.5855 29.0069Z" fill="#6F8A62"/>
<path d="M32.4144 14.9933C29.1956 14.9185 27.7097 14.0478 27.1771 11.9551C26.7448 10.2548 27.5707 8.42375 29.1493 7.57547C30.832 6.67113 32.7657 6.94019 34.1551 8.30417C34.0547 8.45364 33.9505 8.61433 33.7691 8.88339C34.0084 8.73017 34.1474 8.64049 34.2786 8.55454C34.9501 9.09639 35.0775 9.39535 35.3747 11.0919C42.3179 5.7668 49.3191 5.66216 56.3743 10.6435C56.3743 10.7182 56.3704 10.7967 56.3704 10.8714C55.147 10.6771 53.9235 10.4641 52.7 10.2885C50.7819 10.0119 48.8675 9.66814 46.9339 9.51119C43.8733 9.26082 41.0945 10.124 38.5781 11.8131C38.5163 11.8542 38.4854 11.9439 38.3542 12.1382C39.1917 11.9626 39.8942 11.8131 40.6005 11.6711C46.6483 10.4604 52.6885 10.1876 58.69 11.8841C61.5152 12.6838 64.074 13.9843 65.9999 15.8378C64.5989 15.3072 63.0127 14.6009 61.3569 14.1039C58.4314 13.2257 55.3978 13.1435 52.3643 13.3266C48.3195 13.5695 44.433 14.4402 40.8783 16.3946C38.2655 17.8296 36.2701 19.8101 35.4017 22.6913C34.8536 24.5224 34.8845 26.3684 35.2087 28.2257C35.2512 28.4649 35.2936 28.7003 35.3631 29.1076C34.294 28.932 33.306 28.8086 32.345 28.5807C32.1173 28.5284 31.9243 28.136 31.8124 27.8669C30.1335 23.704 30.1952 19.5934 32.1751 15.5351C32.2601 15.3632 32.3295 15.1838 32.4144 14.9933Z" fill="#3A483F"/>
</svg>
