<svg width="100" height="100" viewBox="0 0 100 100" fill="none" xmlns="http://www.w3.org/2000/svg">
<path d="M85.0012 61.2096L84.2941 61.9167L85.0012 62.6238L90.2525 67.875L82.0429 76.0846L81.3358 76.7917L82.0429 77.4988L87.2941 82.75L82.75 87.2941L77.4988 82.0429L76.7917 81.3358L76.0846 82.0429L67.875 90.2525L62.6238 85.0012L61.9167 84.2941L61.2096 85.0012L55.9583 90.2525L51.4142 85.7083L65.5821 71.5404L66.2892 70.8333L65.5821 70.1262L29.8738 34.4179L29.1667 33.7108L28.4596 34.4179L14.2917 48.5858L9.74756 44.0417L14.9988 38.7905L15.7059 38.0833L14.9988 37.3762L9.74756 32.125L17.9571 23.9155L18.6642 23.2083L17.9571 22.5012L12.7059 17.25L17.25 12.7059L22.5012 17.9571L23.2083 18.6642L23.9155 17.9571L32.125 9.74756L37.3762 14.9988L38.0833 15.7059L38.7905 14.9988L44.0417 9.74756L48.5858 14.2917L34.4179 28.4596L33.7108 29.1667L34.4179 29.8738L70.1262 65.5821L70.8333 66.2892L71.5405 65.5821L85.7084 51.4142L90.2525 55.9583L85.0012 61.2096Z" stroke="#979797" stroke-width="2"/>
</svg>
