<svg width="100" height="100" viewBox="0 0 100 100" fill="none" xmlns="http://www.w3.org/2000/svg">
<path d="M45.8333 38.5H46.8333V37.5V9.33334H53.1667V37.5C53.1667 45.7945 46.6715 52.5341 38.4796 53.0436L37.5417 53.1019V54.0417V90.6667H29.125V54.0417V53.1019L28.1871 53.0436C19.9952 52.5341 13.5 45.7945 13.5 37.5V9.33334H19.8333V37.5V38.5H20.8333H29.1667H30.1667V37.5V9.33334H36.5V37.5V38.5H37.5H45.8333ZM78.0833 58.3333V57.3333H77.0833H67.6667V25C67.6667 21.726 69.7824 17.8125 73.4237 14.6742C76.8166 11.7499 81.4158 9.60905 86.5 9.35804V90.6667H78.0833V58.3333Z" stroke="#979797" stroke-width="2"/>
</svg>
