<svg width="100" height="100" viewBox="0 0 100 100" fill="none" xmlns="http://www.w3.org/2000/svg">
<path d="M35.625 50C31.1666 47.0417 26.25 44.7084 20.9166 43.2917C26.25 44.7084 31.1666 47.0417 35.625 50ZM79.0833 43.2917C73.7083 44.7084 68.7083 47.0834 64.2083 50.125C68.7083 47.0834 73.7083 44.7084 79.0833 43.2917Z" fill="#607D8B"/>
<path d="M9.34325 42.677C18.817 42.8716 27.6195 45.7973 35.0334 50.7056L34.992 50.7647C35.3441 51.023 35.7017 51.2414 36.0179 51.4331L36.0619 51.4598C36.2922 51.5995 36.4972 51.7238 36.6874 51.85C41.5908 55.3934 45.8251 59.8299 49.1637 64.9232L50 66.1991L50.8363 64.9232C54.1345 59.8916 58.3067 55.501 63.1347 51.9792L63.1514 52.001C63.377 51.8274 63.6194 51.6737 63.8965 51.5043C63.9379 51.479 63.9805 51.4531 64.0241 51.4266C64.2595 51.2835 64.5236 51.123 64.7775 50.9472L64.7228 50.8681C72.1871 45.862 81.0789 42.8737 90.6568 42.677C90.239 63.9683 76.6469 81.8834 57.8774 88.598C55.313 89.4792 52.711 90.1637 49.9929 90.6522C47.2781 90.2029 44.646 89.5192 42.1346 88.6023L42.1284 88.6001C23.3559 81.887 9.76104 63.9705 9.34325 42.677ZM50.0032 49.6577C45.9692 45.6114 41.4191 42.234 36.5132 39.5573C37.5508 28.7777 42.1165 18.2211 50.2496 9.76195C58.2897 18.1416 62.66 28.6953 63.4988 39.555C58.5917 42.2662 54.0395 45.6442 50.0032 49.6577Z" stroke="#979797" stroke-width="2"/>
</svg>
